<svg width="27" height="27" viewBox="0 0 27 27" fill="none" xmlns="http://www.w3.org/2000/svg">
<path d="M25.5696 0.76631C24.8054 -0.0101407 23.5709 -0.0101407 22.8067 0.76631L13.2245 10.4819L3.64228 0.7464C2.87806 -0.0300501 1.64354 -0.0300501 0.87932 0.7464C0.115096 1.52285 0.115096 2.77712 0.87932 3.55357L10.4615 13.2891L0.87932 23.0246C0.115096 23.801 0.115096 25.0553 0.87932 25.8317C1.64354 26.6082 2.87806 26.6082 3.64228 25.8317L13.2245 16.0962L22.8067 25.8317C23.5709 26.6082 24.8054 26.6082 25.5696 25.8317C26.3338 25.0553 26.3338 23.801 25.5696 23.0246L15.9874 13.2891L25.5696 3.55357C26.3142 2.79703 26.3142 1.52285 25.5696 0.76631Z" fill="black"/>
</svg>
