<svg width="24" height="24" viewBox="0 0 24 24" fill="none" xmlns="http://www.w3.org/2000/svg">
<path d="M16.5001 6H13.5001C12.9478 6 12.5001 6.44772 12.5001 7V10H16.5001C16.6138 9.99748 16.7217 10.0504 16.7893 10.1419C16.8569 10.2334 16.8759 10.352 16.8401 10.46L16.1001 12.66C16.0319 12.8619 15.8432 12.9984 15.6301 13H12.5001V20.5C12.5001 20.7761 12.2762 21 12.0001 21H9.50012C9.22398 21 9.00012 20.7761 9.00012 20.5V13H7.50012C7.22398 13 7.00012 12.7761 7.00012 12.5V10.5C7.00012 10.2239 7.22398 10 7.50012 10H9.00012V7C9.00012 4.79086 10.791 3 13.0001 3H16.5001C16.7762 3 17.0001 3.22386 17.0001 3.5V5.5C17.0001 5.77614 16.7762 6 16.5001 6Z" fill="white"/>
</svg>
