<svg width="24" height="24" viewBox="0 0 24 24" fill="none" xmlns="http://www.w3.org/2000/svg">
<path fill-rule="evenodd" clip-rule="evenodd" d="M4.22222 2H19.7778C21.0051 2 22 2.99492 22 4.22222V19.7778C22 21.0051 21.0051 22 19.7778 22H4.22222C2.99492 22 2 21.0051 2 19.7778V4.22222C2 2.99492 2.99492 2 4.22222 2ZM7.55556 18.6667C7.86238 18.6667 8.11111 18.4179 8.11111 18.1111V10.3333C8.11111 10.0266 7.86238 9.77778 7.55556 9.77778H5.88889C5.58207 9.77778 5.33333 10.0266 5.33333 10.3333V18.1111C5.33333 18.4179 5.58207 18.6667 5.88889 18.6667H7.55556ZM6.72222 8.66667C5.80174 8.66667 5.05556 7.92048 5.05556 7C5.05556 6.07952 5.80174 5.33333 6.72222 5.33333C7.6427 5.33333 8.38889 6.07952 8.38889 7C8.38889 7.92048 7.6427 8.66667 6.72222 8.66667ZM18.1111 18.6667C18.4179 18.6667 18.6667 18.4179 18.6667 18.1111V13C18.7028 11.2342 17.3973 9.72725 15.6444 9.51111C14.4189 9.39917 13.2314 9.97156 12.5556 11V10.3333C12.5556 10.0266 12.3068 9.77778 12 9.77778H10.3333C10.0266 9.77778 9.77778 10.0266 9.77778 10.3333V18.1111C9.77778 18.4179 10.0266 18.6667 10.3333 18.6667H12C12.3068 18.6667 12.5556 18.4179 12.5556 18.1111V13.9444C12.5556 13.024 13.3018 12.2778 14.2222 12.2778C15.1427 12.2778 15.8889 13.024 15.8889 13.9444V18.1111C15.8889 18.4179 16.1377 18.6667 16.4444 18.6667H18.1111Z" fill="black"/>
</svg>
