<svg width="25" height="24" viewBox="0 0 25 24" fill="none" xmlns="http://www.w3.org/2000/svg">
<path fill-rule="evenodd" clip-rule="evenodd" d="M4.34462 2H20.3511C21.614 2 22.6377 2.99492 22.6377 4.22222V19.7778C22.6377 21.0051 21.614 22 20.3511 22H4.34462C3.08174 22 2.05798 21.0051 2.05798 19.7778V4.22222C2.05798 2.99492 3.08174 2 4.34462 2ZM7.77457 18.6667C8.09029 18.6667 8.34623 18.4179 8.34623 18.1111V10.3333C8.34623 10.0266 8.09029 9.77778 7.77457 9.77778H6.05959C5.74388 9.77778 5.48794 10.0266 5.48794 10.3333V18.1111C5.48794 18.4179 5.74388 18.6667 6.05959 18.6667H7.77457ZM6.91708 8.66667C5.96992 8.66667 5.20211 7.92048 5.20211 7C5.20211 6.07952 5.96992 5.33333 6.91708 5.33333C7.86424 5.33333 8.63206 6.07952 8.63206 7C8.63206 7.92048 7.86424 8.66667 6.91708 8.66667ZM18.6361 18.6667C18.9518 18.6667 19.2077 18.4179 19.2077 18.1111V13C19.2449 11.2342 17.9016 9.72725 16.0979 9.51111C14.8368 9.39917 13.615 9.97156 12.9195 11V10.3333C12.9195 10.0266 12.6635 9.77778 12.3478 9.77778H10.6329C10.3172 9.77778 10.0612 10.0266 10.0612 10.3333V18.1111C10.0612 18.4179 10.3172 18.6667 10.6329 18.6667H12.3478C12.6635 18.6667 12.9195 18.4179 12.9195 18.1111V13.9444C12.9195 13.024 13.6873 12.2778 14.6345 12.2778C15.5816 12.2778 16.3494 13.024 16.3494 13.9444V18.1111C16.3494 18.4179 16.6054 18.6667 16.9211 18.6667H18.6361Z" fill="white"/>
</svg>
