<svg width="24" height="24" viewBox="0 0 24 24" fill="none" xmlns="http://www.w3.org/2000/svg">
<path d="M20.9729 6.71765C20.5085 7.33717 19.9471 7.87758 19.3104 8.31801C19.3104 8.47984 19.3104 8.64167 19.3104 8.8125C19.3155 11.7513 18.1416 14.5693 16.0519 16.6347C13.9621 18.7001 11.1313 19.8401 8.19417 19.7991C6.49611 19.8048 4.81979 19.4171 3.29654 18.6663C3.2144 18.6304 3.16143 18.5492 3.16174 18.4595V18.3606C3.16174 18.2315 3.26635 18.1269 3.39539 18.1269C5.06454 18.0718 6.67414 17.4931 7.99646 16.4726C6.48565 16.4421 5.12631 15.5471 4.50072 14.1709C4.46913 14.0958 4.47896 14.0095 4.52669 13.9434C4.57441 13.8773 4.65312 13.8409 4.73437 13.8473C5.19354 13.8934 5.6573 13.8507 6.10032 13.7214C4.43251 13.3752 3.17933 11.9906 2.99998 10.2959C2.99361 10.2146 3.03004 10.1359 3.09612 10.0881C3.16219 10.0404 3.24836 10.0305 3.3235 10.0622C3.77106 10.2597 4.25421 10.3637 4.74336 10.3678C3.28196 9.40871 2.65073 7.5843 3.20667 5.92647C3.26406 5.76538 3.40193 5.64637 3.56962 5.61319C3.7373 5.58 3.91008 5.63753 4.02444 5.76464C5.99651 7.8635 8.70616 9.11421 11.582 9.25304C11.5084 8.9591 11.4722 8.65701 11.4742 8.35397C11.5011 6.76497 12.4843 5.34946 13.9635 4.77012C15.4426 4.19079 17.125 4.56228 18.2231 5.71069C18.9715 5.5681 19.6951 5.3167 20.3708 4.96446C20.4203 4.93356 20.4831 4.93356 20.5326 4.96446C20.5635 5.01398 20.5635 5.07677 20.5326 5.12629C20.2053 5.87577 19.6524 6.50437 18.951 6.92444C19.5652 6.85321 20.1686 6.70832 20.7483 6.49289C20.7971 6.45967 20.8612 6.45967 20.91 6.49289C20.9509 6.51159 20.9815 6.54736 20.9936 6.59067C21.0057 6.63398 20.9981 6.68043 20.9729 6.71765Z" fill="black"/>
</svg>
